<svg width="311" height="46" viewBox="0 0 311 46" fill="none" xmlns="http://www.w3.org/2000/svg">
<path d="M31.5882 37.178C30.475 38.6813 29.1335 39.8373 27.5683 40.6413C26.0032 41.4453 24.1907 41.8449 22.1308 41.8449H14.0339V5.7468C14.072 4.67641 14.4763 3.75826 15.2375 2.9971C15.9987 2.23594 16.9168 1.85536 17.9872 1.85536H18.7912V1.23691H14.0339H13.8484H4.94279H4.75726H0V1.85536H0.803977C1.87436 1.85536 2.79251 2.23594 3.55367 2.9971C4.31484 3.75826 4.7192 4.67641 4.75726 5.7468V39.9943C4.71445 41.0647 4.31484 41.9829 3.55367 42.744C2.79251 43.5052 1.87436 43.8857 0.803977 43.8857H0V44.5042H4.75726H4.94279H13.8436H14.0292H19.8996H31.8308H32.0164L34.8612 31.8309H34.2428C33.5863 33.8908 32.7014 35.6747 31.5882 37.178Z" fill="#040706"/>
<path d="M69.3559 37.178C68.2427 38.6813 66.9012 39.8373 65.336 40.6413C63.7709 41.4452 61.9584 41.8449 59.8985 41.8449H51.8016V24.4761H59.9603C61.4826 24.5189 62.7433 25.0327 63.7328 26.0222C64.7223 27.0117 65.2171 28.2676 65.2171 29.7947V30.2895H65.8355V24.4809V24.3572V22.0071V21.8834V16.07H65.2171V16.5029C65.2171 18.03 64.7223 19.2955 63.7328 20.304C62.7433 21.3125 61.4874 21.8406 59.9603 21.8786H51.8016V3.89144H62.7909C64.3322 4.07222 65.5834 4.64308 66.5444 5.62308C67.6766 6.77909 68.2427 8.30142 68.2427 10.1996V10.9417H68.8612V3.89619V3.71067V1.91717V1.23689V0.123688C68.4901 0.290192 67.8717 0.451943 67.0058 0.618447C66.14 0.784951 65.2028 0.927671 64.1943 1.05136C63.1857 1.17505 62.2248 1.23689 61.3209 1.23689H51.8016H51.6161H42.7153H42.5297H37.7725V1.85534H38.5764C39.6468 1.85534 40.565 2.23592 41.3261 2.99708C42.0873 3.75824 42.4917 4.67639 42.5297 5.74677V39.9943C42.4869 41.0647 42.0873 41.9828 41.3261 42.744C40.565 43.5052 39.6468 43.8857 38.5764 43.8857H37.7725V44.5042H42.5297H42.7153H51.6161H51.8016H57.6721H69.6033H69.7888L72.6337 31.8308H72.0152C71.354 33.8907 70.4691 35.6747 69.3559 37.178Z" fill="#040706"/>
<path d="M107.062 24.4143H108.052C110.155 24.4143 111.206 25.3419 111.206 27.1973L111.144 36.6547C110.692 37.9725 109.926 39.0857 108.856 39.9943C107.786 40.9029 106.539 41.5927 105.117 42.0637C103.694 42.5394 102.22 42.7726 100.697 42.7726C97.6907 42.7345 95.136 41.9163 93.0333 40.3321C90.9306 38.7479 89.3322 36.4787 88.2428 33.5339C87.1486 30.5892 86.6063 27.1354 86.6063 23.1774C86.6063 18.972 87.1914 15.3707 88.3665 12.3594C89.5415 9.35279 91.2922 7.03125 93.6185 5.40427C95.9448 3.77729 98.7801 2.96379 102.12 2.96379C104.303 2.96379 106.373 3.32534 108.333 4.04369C110.288 4.76679 112.01 5.96087 113.494 7.63067C114.979 9.30046 116.111 11.5364 116.896 14.3384H117.452L117.329 3.76777C116.135 3.10651 114.631 2.53088 112.814 2.03612C111.002 1.54137 109.022 1.14176 106.882 0.832535C104.736 0.523313 102.534 0.366333 100.269 0.366333C95.4072 0.366333 91.1923 1.28448 87.6291 3.11603C84.0659 4.95233 81.3257 7.53552 79.4085 10.8751C77.4914 14.2147 76.5352 18.1918 76.5352 22.8063C76.5352 27.4209 77.5009 31.4217 79.4418 34.7994C81.378 38.177 84.0992 40.784 87.6005 42.6203C91.1019 44.4519 95.2026 45.37 99.9028 45.37C103.242 45.37 106.268 44.9704 108.989 44.1664C111.71 43.3625 114.046 42.3444 116.006 41.1075C117.961 39.8706 119.436 38.6337 120.426 37.3968V27.1973C120.345 25.3419 121.372 24.4143 123.518 24.4143H124.446V23.7958H107.077V24.4143H107.062Z" fill="#040706"/>
<path d="M158.065 37.178C156.952 38.6813 155.615 39.8373 154.045 40.6413C152.48 41.4452 150.667 41.8449 148.607 41.8449H140.51V24.4761H148.669C150.192 24.5189 151.452 25.0327 152.442 26.0222C153.431 27.0117 153.926 28.2676 153.926 29.7947V30.2895H154.544V24.4809V24.3572V22.0071V21.8834V16.07H153.926V16.5029C153.926 18.03 153.431 19.2955 152.442 20.304C151.452 21.3125 150.196 21.8406 148.669 21.8786H140.51V3.89144H151.5C153.036 4.07222 154.292 4.64308 155.253 5.62308C156.385 6.77909 156.952 8.30142 156.952 10.1996V10.9417H157.57V3.89619V3.71067V1.91717V1.23689V0.123688C157.199 0.290192 156.581 0.451943 155.715 0.618447C154.849 0.784951 153.912 0.927671 152.903 1.05136C151.89 1.17505 150.934 1.23689 150.03 1.23689H140.51H140.325H131.424H131.239H126.477V1.85534H127.281C128.351 1.85534 129.269 2.23592 130.03 2.99708C130.791 3.75824 131.196 4.67639 131.234 5.74677V39.9943C131.191 41.0647 130.791 41.9828 130.03 42.744C129.269 43.5052 128.351 43.8857 127.281 43.8857H126.477V44.5042H131.239H131.424H140.325H140.51H146.381H158.312H158.498L161.343 31.8308H160.724C160.063 33.8907 159.178 35.6747 158.065 37.178Z" fill="#040706"/>
<path d="M209.181 1.23215H200.714H200.59H195.585V1.85058H196.76C197.831 1.85058 198.73 2.21213 199.448 2.93048C200.166 3.65358 200.552 4.54794 200.59 5.61833V30.0516L169.373 0.304474H168.754C169.249 3.14932 169.496 5.72299 169.496 8.03026V40.1132C169.496 41.1456 169.125 42.0304 168.383 42.7725C167.641 43.5147 166.756 43.8857 165.724 43.8857H164.549V44.5042H169.492H169.677H178.145H178.331H183.278V43.8857H182.103C181.071 43.8857 180.186 43.5147 179.444 42.7725C178.702 42.0304 178.331 41.1456 178.331 40.1132H178.321L178.278 15.6181L209.548 45.3652H210.104C209.857 44.0475 209.671 42.782 209.548 41.5642C209.424 40.3511 209.362 38.981 209.362 37.4539V5.61833C209.405 4.54794 209.795 3.64882 210.537 2.93048C211.279 2.21213 212.164 1.85058 213.197 1.85058H214.31V1.23215H209.362H209.181Z" fill="#040706"/>
<path d="M261.017 11.3366C259.1 8.10169 256.369 5.60888 252.825 3.85821C249.281 2.10754 245.075 1.23221 240.213 1.23221H231.807H224.824H222.721H222.535H217.773L217.835 1.85065H218.577C219.648 1.85065 220.575 2.23122 221.36 2.99239C222.141 3.75831 222.535 4.6717 222.535 5.74208V39.9896C222.493 41.06 222.093 41.9781 221.327 42.7393C220.566 43.5005 219.648 43.881 218.577 43.881H217.773V44.4995H222.535H222.721H225.504H231.807H240.213C245.075 44.4995 249.281 43.6242 252.825 41.8735C256.369 40.1228 259.1 37.63 261.017 34.3951C262.934 31.1601 263.89 27.3163 263.89 22.8682C263.89 18.4154 262.934 14.5763 261.017 11.3366ZM252.083 33.0059C250.927 35.8508 249.281 38.0439 247.135 39.59C244.994 41.1361 242.435 41.9068 239.471 41.9068H236.289H232.982H231.807V3.82967H232.673H236.136H239.476C242.445 3.82967 244.999 4.60034 247.14 6.14645C249.281 7.69256 250.932 9.88566 252.088 12.7305C253.239 15.5753 253.819 18.953 253.819 22.8682C253.814 26.7834 253.239 30.1611 252.083 33.0059Z" fill="#040706"/>
<path d="M309.941 43.8857C308.994 43.8857 308.023 43.586 307.034 42.9914C306.249 42.5156 305.554 41.783 304.95 40.803L286.264 0H285.707C285.707 0.45194 285.564 1.07991 285.274 1.88389C284.984 2.68786 284.665 3.52037 284.318 4.38619C283.966 5.25202 283.638 6.0227 283.328 6.70299C283.019 7.38328 282.805 7.84473 282.677 8.0921L268.248 40.7412C267.658 41.7497 266.959 42.5014 266.145 42.9866C265.137 43.586 264.157 43.881 263.21 43.881H262.653V44.4994H275.883V43.881H275.327C274.832 43.881 274.337 43.7287 273.842 43.4148C273.348 43.1055 272.996 42.6631 272.791 42.0875C272.596 41.5404 272.648 40.8791 272.934 40.1132L276.154 32.3827H290.664L293.699 39.9848H293.685C294.18 41.2217 294.118 42.1779 293.499 42.8582C292.881 43.5385 292.158 43.8762 291.335 43.8762H290.778V44.4947H310.435V43.8762H309.941V43.8857ZM277.239 29.79L283.566 14.6096L289.627 29.79H277.239Z" fill="#040706"/>
</svg>
