<svg width="98" height="91" viewBox="0 0 98 91" fill="none" xmlns="http://www.w3.org/2000/svg">
<path d="M30.409 41.3879C29.9373 43.0366 24.7555 73.3011 46.424 84.8397C67.2682 95.556 83.1642 88.2539 92.5846 79.7768C88.6987 81.0728 70.2107 89.314 51.9585 75.4193C44.0699 68.9415 38.8965 53.8698 46.2925 43.0366C54.3731 31.2016 64.5593 30.4357 69.9749 33.0277C70.3276 35.3838 67.8546 34.8537 67.4434 35.5007C67.0323 36.1476 69.9749 43.5666 73.8607 45.2737C77.7466 46.9808 84.8129 50.3971 85.7541 56.1654C90.0511 58.0499 87.4612 41.1521 86.7537 40.9163C86.0483 40.6804 81.0418 39.5034 81.2192 35.2043C82.9868 35.7344 83.8696 37.5605 85.5183 37.6189C85.6957 35.4402 82.8679 28.0212 86.8142 24.3127C83.8112 25.4897 83.1642 27.3742 82.87 27.61C82.8115 26.6083 82.4588 25.2539 83.1642 23.0167C81.5156 24.0185 81.1044 25.9009 80.6328 25.9614C80.1611 26.0198 79.9253 16.6579 75.8036 14.4207C76.5111 17.4822 76.0979 21.487 75.7452 21.487C75.3925 21.487 65.5005 12.891 60.7903 13.3626C64.4988 16.1299 64.5593 20.31 64.1461 20.4874C63.1444 19.8404 55.5501 14.4812 50.1909 17.0127C52.1922 17.9539 53.6656 20.0157 53.5466 20.31C52.4865 19.9573 42.3587 14.9529 44.4205 9.29941C46.6682 3.13673 51.898 0.644948 51.898 0.350692C51.898 0.0564362 33.4684 -2.23918 17.925 10.3011C10.8608 17.0106 -3.09238 35.7344 0.616075 68.7662C3.79654 52.868 19.605 26.6375 32.3227 23.6365C33.1178 23.4592 13.2461 45.4511 17.7497 61.967C19.2502 56.4012 23.0484 46.2442 30.409 41.3879Z" fill="#85C5C8"/>
<path d="M48.6607 42.0933C47.7195 44.6832 41.154 66.8233 60.0824 76.3605C77.0595 84.9148 96.1151 72.7105 97.9996 59.2269C89.8753 69.1773 74.0063 75.6531 63.3797 69.53C49.5747 61.5768 47.7716 46.6678 48.6607 42.0933Z" fill="#85C5C8"/>
<path d="M71.2123 58.1396C71.2123 62.2759 67.8587 65.6295 63.7224 65.6295C59.5861 65.6295 56.2324 62.2759 56.2324 58.1396C56.2324 54.0033 59.5861 50.6496 63.7224 50.6496C67.8587 50.6475 71.2123 54.0012 71.2123 58.1396Z" fill="#85C5C8"/>
<path d="M66.7066 46.5008C64.3255 46.5008 62.1133 47.2354 60.2831 48.4876C60.2664 48.4959 60.2518 48.5084 60.2372 48.5189C57.2592 50.5787 55.3037 54.0158 55.3037 57.9017C55.3037 64.1896 60.4187 69.3046 66.7066 69.3046C72.9945 69.3046 78.1096 64.1896 78.1096 57.9017C78.1096 51.6159 72.9945 46.5008 66.7066 46.5008ZM77.0515 56.1111C72.0784 54.3435 68.4075 55.9796 66.8298 57.3904C65.8677 57.0502 64.4027 56.0673 63.1526 54.3497C64.1794 53.2165 67.963 49.6771 74.3782 50.7414C75.743 52.2065 76.6967 54.0576 77.0515 56.1111ZM73.2408 49.6917C67.5205 49.2326 63.8976 52.2983 62.6434 53.5859C61.9109 52.3859 61.3057 50.8959 61.001 49.0949C62.6455 48.0264 64.6051 47.4024 66.7066 47.4024C69.1755 47.4024 71.446 48.2622 73.2408 49.6917ZM60.1913 49.6771C61.2347 54.884 64.7157 57.5991 66.5585 58.2502C66.7922 59.3521 66.74 61.0801 65.8802 62.9666C64.482 62.6139 59.0372 60.8672 56.7145 54.6857C57.3572 52.6906 58.5843 50.9543 60.1913 49.6771ZM56.2073 57.9038C56.2073 57.309 56.2595 56.7267 56.3555 56.1612C58.912 61.5559 63.7703 63.3235 65.4587 63.7889C64.8055 64.9242 63.8476 66.0887 62.4639 67.1885C62.3825 67.2532 62.3366 67.3429 62.3137 67.4368C58.7117 65.7694 56.2073 62.1235 56.2073 57.9038ZM63.1589 67.7853C64.7721 66.4768 65.8406 65.0723 66.5209 63.7179C66.523 63.7158 66.523 63.7137 66.523 63.7137C67.6478 61.4766 67.7167 59.375 67.4412 58.0582C68.2823 57.3048 69.8099 56.4867 71.878 56.2927C72.3205 57.6012 73.6874 62.8498 69.3278 68.0462L69.3549 68.0671C68.5097 68.2883 67.6228 68.4051 66.7066 68.4051C65.4628 68.4031 64.267 68.1839 63.1589 67.7853ZM70.8367 67.5558C74.2321 62.7078 73.2888 57.9017 72.8025 56.2467C74.0943 56.2467 75.5594 56.493 77.1746 57.1253C77.1934 57.382 77.2059 57.6429 77.2059 57.9058C77.208 62.2279 74.5806 65.9488 70.8367 67.5558Z" fill="#040706"/>
</svg>
