<svg width="311" height="46" viewBox="0 0 311 46" fill="none" xmlns="http://www.w3.org/2000/svg">
<path d="M31.5882 37.3647C30.475 38.868 29.1335 40.024 27.5683 40.828C26.0032 41.6319 24.1907 42.0316 22.1308 42.0316H14.0339V5.93347C14.072 4.86309 14.4763 3.94494 15.2375 3.18378C15.9987 2.42261 16.9168 2.04204 17.9872 2.04204H18.7912V1.42358H14.0339H13.8484H4.94279H4.75726H0V2.04204H0.803977C1.87436 2.04204 2.79251 2.42261 3.55367 3.18378C4.31484 3.94494 4.7192 4.86309 4.75726 5.93347V40.181C4.71445 41.2514 4.31484 42.1695 3.55367 42.9307C2.79251 43.6919 1.87436 44.0724 0.803977 44.0724H0V44.6909H4.75726H4.94279H13.8436H14.0292H19.8996H31.8308H32.0164L34.8612 32.0175H34.2428C33.5863 34.0774 32.7014 35.8614 31.5882 37.3647Z" fill="white"/>
<path d="M69.3559 37.3649C68.2427 38.8682 66.9012 40.0242 65.336 40.8281C63.7709 41.6321 61.9584 42.0317 59.8985 42.0317H51.8016V24.663H59.9603C61.4826 24.7058 62.7433 25.2196 63.7328 26.2091C64.7223 27.1986 65.2171 28.4545 65.2171 29.9816V30.4763H65.8355V24.6677V24.544V22.1939V22.0703V16.2569H65.2171V16.6898C65.2171 18.2169 64.7223 19.4823 63.7328 20.4909C62.7433 21.4994 61.4874 22.0274 59.9603 22.0655H51.8016V4.0783H62.7909C64.3322 4.25908 65.5834 4.82994 66.5444 5.80994C67.6766 6.96595 68.2427 8.48827 68.2427 10.3864V11.1286H68.8612V4.08305V3.89753V2.10403V1.42374V0.310547C68.4901 0.477051 67.8717 0.638802 67.0058 0.805306C66.14 0.97181 65.2028 1.11453 64.1943 1.23822C63.1857 1.36191 62.2248 1.42374 61.3209 1.42374H51.8016H51.6161H42.7153H42.5297H37.7725V2.0422H38.5764C39.6468 2.0422 40.565 2.42277 41.3261 3.18394C42.0873 3.9451 42.4917 4.86325 42.5297 5.93363V40.1811C42.4869 41.2515 42.0873 42.1697 41.3261 42.9309C40.565 43.692 39.6468 44.0726 38.5764 44.0726H37.7725V44.691H42.5297H42.7153H51.6161H51.8016H57.6721H69.6033H69.7888L72.6337 32.0177H72.0152C71.354 34.0776 70.4691 35.8616 69.3559 37.3649Z" fill="white"/>
<path d="M107.062 24.6012H108.052C110.155 24.6012 111.206 25.5288 111.206 27.3842L111.144 36.8416C110.692 38.1594 109.926 39.2726 108.856 40.1812C107.786 41.0898 106.539 41.7796 105.117 42.2506C103.694 42.7263 102.22 42.9595 100.697 42.9595C97.6907 42.9214 95.136 42.1031 93.0333 40.519C90.9306 38.9348 89.3322 36.6656 88.2428 33.7208C87.1486 30.7761 86.6063 27.3223 86.6063 23.3643C86.6063 19.1589 87.1914 15.5576 88.3665 12.5463C89.5415 9.53968 91.2922 7.21814 93.6185 5.59116C95.9448 3.96418 98.7801 3.15068 102.12 3.15068C104.303 3.15068 106.373 3.51223 108.333 4.23058C110.288 4.95368 112.01 6.14776 113.494 7.81755C114.979 9.48735 116.111 11.7233 116.896 14.5253H117.452L117.329 3.95466C116.135 3.2934 114.631 2.71777 112.814 2.22301C111.002 1.72826 109.022 1.32865 106.882 1.01942C104.736 0.710203 102.534 0.553223 100.269 0.553223C95.4072 0.553223 91.1923 1.47137 87.6291 3.30292C84.0659 5.13922 81.3257 7.72241 79.4085 11.062C77.4914 14.4016 76.5352 18.3787 76.5352 22.9932C76.5352 27.6078 77.5009 31.6086 79.4418 34.9863C81.378 38.3639 84.0992 40.9709 87.6005 42.8072C91.1019 44.6388 95.2026 45.5569 99.9028 45.5569C103.242 45.5569 106.268 45.1573 108.989 44.3533C111.71 43.5494 114.046 42.5313 116.006 41.2944C117.961 40.0575 119.436 38.8206 120.426 37.5837V27.3842C120.345 25.5288 121.372 24.6012 123.518 24.6012H124.446V23.9827H107.077V24.6012H107.062Z" fill="white"/>
<path d="M158.065 37.3649C156.952 38.8682 155.615 40.0242 154.045 40.8281C152.48 41.6321 150.667 42.0317 148.607 42.0317H140.51V24.663H148.669C150.192 24.7058 151.452 25.2196 152.442 26.2091C153.431 27.1986 153.926 28.4545 153.926 29.9816V30.4763H154.544V24.6677V24.544V22.1939V22.0703V16.2569H153.926V16.6898C153.926 18.2169 153.431 19.4823 152.442 20.4909C151.452 21.4994 150.196 22.0274 148.669 22.0655H140.51V4.0783H151.5C153.036 4.25908 154.292 4.82994 155.253 5.80994C156.385 6.96595 156.952 8.48827 156.952 10.3864V11.1286H157.57V4.08305V3.89753V2.10403V1.42374V0.310547C157.199 0.477051 156.581 0.638802 155.715 0.805306C154.849 0.97181 153.912 1.11453 152.903 1.23822C151.89 1.36191 150.934 1.42374 150.03 1.42374H140.51H140.325H131.424H131.239H126.477V2.0422H127.281C128.351 2.0422 129.269 2.42277 130.03 3.18394C130.791 3.9451 131.196 4.86325 131.234 5.93363V40.1811C131.191 41.2515 130.791 42.1697 130.03 42.9309C129.269 43.692 128.351 44.0726 127.281 44.0726H126.477V44.691H131.239H131.424H140.325H140.51H146.381H158.312H158.498L161.343 32.0177H160.724C160.063 34.0776 159.178 35.8616 158.065 37.3649Z" fill="white"/>
<path d="M209.181 1.41888H200.714H200.59H195.585V2.03732H196.76C197.831 2.03732 198.73 2.39887 199.448 3.11721C200.166 3.84032 200.552 4.73468 200.59 5.80506V30.2383L169.373 0.491211H168.754C169.249 3.33605 169.496 5.90973 169.496 8.217V40.3C169.496 41.3323 169.125 42.2172 168.383 42.9593C167.641 43.7014 166.756 44.0725 165.724 44.0725H164.549V44.6909H169.492H169.677H178.145H178.331H183.278V44.0725H182.103C181.071 44.0725 180.186 43.7014 179.444 42.9593C178.702 42.2172 178.331 41.3323 178.331 40.3H178.321L178.278 15.8048L209.548 45.552H210.104C209.857 44.2342 209.671 42.9688 209.548 41.7509C209.424 40.5378 209.362 39.1678 209.362 37.6407V5.80506C209.405 4.73468 209.795 3.83556 210.537 3.11721C211.279 2.39887 212.164 2.03732 213.197 2.03732H214.31V1.41888H209.362H209.181Z" fill="white"/>
<path d="M261.017 11.5234C259.1 8.28842 256.369 5.79562 252.825 4.04495C249.281 2.29428 245.075 1.41895 240.213 1.41895H231.807H224.824H222.721H222.535H217.773L217.835 2.03738H218.577C219.648 2.03738 220.575 2.41796 221.36 3.17912C222.141 3.94504 222.535 4.85844 222.535 5.92882V40.1763C222.493 41.2467 222.093 42.1649 221.327 42.926C220.566 43.6872 219.648 44.0678 218.577 44.0678H217.773V44.6862H222.535H222.721H225.504H231.807H240.213C245.075 44.6862 249.281 43.8109 252.825 42.0602C256.369 40.3095 259.1 37.8167 261.017 34.5818C262.934 31.3469 263.89 27.503 263.89 23.055C263.89 18.6022 262.934 14.7631 261.017 11.5234ZM252.083 33.1927C250.927 36.0375 249.281 38.2306 247.135 39.7767C244.994 41.3228 242.435 42.0935 239.471 42.0935H236.289H232.982H231.807V4.01641H232.673H236.136H239.476C242.445 4.01641 244.999 4.78708 247.14 6.33319C249.281 7.8793 250.932 10.0724 252.088 12.9172C253.239 15.7621 253.819 19.1397 253.819 23.055C253.814 26.9702 253.239 30.3478 252.083 33.1927Z" fill="white"/>
<path d="M309.941 44.0725C308.994 44.0725 308.023 43.7728 307.034 43.1781C306.249 42.7024 305.554 41.9698 304.95 40.9898L286.264 0.186768H285.707C285.707 0.638707 285.564 1.26668 285.274 2.07065C284.984 2.87463 284.665 3.70714 284.318 4.57296C283.966 5.43878 283.638 6.20947 283.328 6.88976C283.019 7.57005 282.805 8.0315 282.677 8.27887L268.248 40.928C267.658 41.9365 266.959 42.6881 266.145 43.1734C265.137 43.7728 264.157 44.0677 263.21 44.0677H262.653V44.6862H275.883V44.0677H275.327C274.832 44.0677 274.337 43.9155 273.842 43.6015C273.348 43.2923 272.996 42.8499 272.791 42.2743C272.596 41.7272 272.648 41.0659 272.934 40.3L276.154 32.5694H290.664L293.699 40.1715H293.685C294.18 41.4084 294.118 42.3647 293.499 43.0449C292.881 43.7252 292.158 44.063 291.335 44.063H290.778V44.6814H310.435V44.063H309.941V44.0725ZM277.239 29.9767L283.566 14.7963L289.627 29.9767H277.239Z" fill="white"/>
</svg>
