<svg width="104" height="95" viewBox="0 0 104 95" fill="none" xmlns="http://www.w3.org/2000/svg">
<path d="M71.1051 43.5393C71.6012 45.2736 77.0524 77.1113 54.2576 89.2497C32.3299 100.523 15.6076 92.8414 5.69753 83.9237C9.78536 85.287 29.2344 93.9566 48.4354 79.3397C56.734 72.5251 62.1764 56.67 54.3959 45.2736C45.8953 32.8235 35.1796 32.0178 29.4825 34.7445C29.1115 37.2231 31.713 36.6655 32.1455 37.3461C32.578 38.0266 29.4825 45.8313 25.3947 47.6271C21.3068 49.423 13.8732 53.0168 12.8831 59.0849C8.36273 61.0674 11.0872 43.2912 11.8315 43.0431C12.5735 42.795 17.8403 41.5568 17.6537 37.0343C15.7942 37.5919 14.8655 39.5129 13.1311 39.5744C12.9445 37.2824 15.9193 29.4777 11.7678 25.5765C14.927 26.8147 15.6076 28.7972 15.9171 29.0452C15.9786 27.9915 16.3496 26.5666 15.6076 24.2132C17.3419 25.267 17.7744 27.2472 18.2706 27.3109C18.7667 27.3723 19.0148 17.5238 23.3507 15.1703C22.6065 18.391 23.0412 22.6039 23.4122 22.6039C23.7832 22.6039 34.1894 13.5611 39.1445 14.0572C35.2432 16.9683 35.1796 21.3657 35.6142 21.5523C36.668 20.8718 44.6571 15.234 50.2949 17.897C48.1895 18.8871 46.6395 21.0562 46.7647 21.3657C47.8799 20.9947 58.5342 15.7301 56.3652 9.7828C54.0007 3.29978 48.499 0.678473 48.499 0.368921C48.499 0.0593698 67.8866 -2.35557 84.238 10.8366C91.6694 17.8948 106.348 37.5919 102.447 72.3407C99.1008 55.6162 82.4707 28.0222 69.0919 24.8652C68.2555 24.6786 89.1601 47.8137 84.4224 65.1881C82.8439 59.333 78.8483 48.648 71.1051 43.5393Z" fill="white"/>
<path d="M51.9038 44.2814C52.8939 47.0059 59.8007 70.2969 39.8884 80.3298C22.0288 89.3288 1.98258 76.4901 0.000137329 62.3056C8.54683 72.7733 25.2407 79.5856 36.4196 73.1443C50.9422 64.7776 52.839 49.0937 51.9038 44.2814Z" fill="white"/>
<path d="M28.1799 61.1618C28.1799 65.513 31.7079 69.0411 36.0592 69.0411C40.4105 69.0411 43.9385 65.513 43.9385 61.1618C43.9385 56.8105 40.4105 53.2825 36.0592 53.2825C31.7079 53.2803 28.1799 56.8083 28.1799 61.1618Z" fill="white"/>
<path d="M32.9213 48.918C35.4263 48.918 37.7534 49.6908 39.6788 51.0081C39.6963 51.0168 39.7117 51.03 39.7271 51.041C42.8599 53.2078 44.917 56.8237 44.917 60.9115C44.917 67.5262 39.5361 72.9072 32.9213 72.9072C26.3066 72.9072 20.9257 67.5262 20.9257 60.9115C20.9257 54.299 26.3066 48.918 32.9213 48.918ZM22.0387 59.0278C27.2704 57.1683 31.1321 58.8895 32.7918 60.3736C33.8039 60.0158 35.3451 58.9817 36.6601 57.1749C35.58 55.9828 31.5997 52.2594 24.851 53.3791C23.4152 54.9203 22.4119 56.8676 22.0387 59.0278ZM26.0475 52.2748C32.0651 51.7918 35.8763 55.0169 37.1958 56.3714C37.9664 55.1091 38.603 53.5415 38.9236 51.6469C37.1936 50.5229 35.1321 49.8664 32.9213 49.8664C30.3242 49.8664 27.9356 50.7709 26.0475 52.2748ZM39.7754 52.2594C38.6777 57.737 35.0157 60.5932 33.0772 61.2781C32.8313 62.4373 32.8862 64.2551 33.7907 66.2397C35.2616 65.8687 40.9894 64.0312 43.4329 57.5284C42.7567 55.4296 41.4658 53.603 39.7754 52.2594ZM43.9664 60.9137C43.9664 60.288 43.9115 59.6755 43.8105 59.0805C41.1212 64.7556 36.0103 66.6152 34.2342 67.1047C34.9213 68.299 35.929 69.5241 37.3846 70.681C37.4702 70.7491 37.5185 70.8435 37.5426 70.9423C41.3319 69.1882 43.9664 65.3528 43.9664 60.9137ZM36.6535 71.3089C34.9565 69.9324 33.8324 68.4549 33.1167 67.0301C33.1145 67.0279 33.1145 67.0257 33.1145 67.0257C31.9312 64.6722 31.8588 62.4615 32.1485 61.0762C31.2638 60.2836 29.6568 59.423 27.4811 59.2188C27.0157 60.5954 25.5777 66.1168 30.1639 71.5833L30.1354 71.6053C31.0245 71.838 31.9575 71.961 32.9213 71.961C34.2298 71.9588 35.4878 71.7282 36.6535 71.3089ZM28.5766 71.0674C25.0047 65.9675 25.997 60.9115 26.5086 59.1705C25.1496 59.1705 23.6084 59.4296 21.9092 60.0948C21.8894 60.3648 21.8763 60.6393 21.8763 60.9159C21.8741 65.4626 24.6381 69.377 28.5766 71.0674Z" fill="#040706"/>
</svg>
