<svg width="116" height="24" viewBox="0 0 116 24" fill="none" xmlns="http://www.w3.org/2000/svg">
<path d="M8.4042 16.5428C8.10803 16.9427 7.7511 17.2503 7.33469 17.4642C6.91828 17.6781 6.43605 17.7844 5.888 17.7844H3.73379V8.18032C3.74392 7.89554 3.8515 7.65126 4.05402 7.44875C4.25653 7.24624 4.5008 7.14498 4.78559 7.14498H4.99949V6.98044H3.73379H3.68443H1.31506H1.26569H0V7.14498H0.213902C0.498683 7.14498 0.742962 7.24624 0.945473 7.44875C1.14798 7.65126 1.25557 7.89554 1.26569 8.18032V17.292C1.2543 17.5768 1.14798 17.8211 0.945473 18.0236C0.742962 18.2261 0.498683 18.3274 0.213902 18.3274H0V18.4919H1.26569H1.31506H3.68317H3.73253H5.29439H8.46875H8.51812L9.275 15.1201H9.11046C8.93579 15.6682 8.70037 16.1428 8.4042 16.5428Z" fill="#040706"/>
<path d="M18.4525 16.5428C18.1563 16.9427 17.7994 17.2503 17.383 17.4642C16.9666 17.6781 16.4843 17.7844 15.9363 17.7844H13.7821V13.1633H15.9528C16.3578 13.1747 16.6932 13.3114 16.9564 13.5747C17.2197 13.838 17.3513 14.1721 17.3513 14.5784V14.71H17.5159V13.1646V13.1317V12.5065V12.4735V10.9269H17.3513V11.042C17.3513 11.4483 17.2197 11.785 16.9564 12.0533C16.6932 12.3217 16.359 12.4622 15.9528 12.4723H13.7821V7.6867H16.7058C17.1159 7.73479 17.4488 7.88667 17.7045 8.14741C18.0057 8.45497 18.1563 8.85999 18.1563 9.365V9.56245H18.3209V7.68796V7.6386V7.16143V6.98044V6.68427C18.2221 6.72856 18.0576 6.7716 17.8272 6.8159C17.5969 6.8602 17.3475 6.89817 17.0792 6.93108C16.8109 6.96398 16.5552 6.98044 16.3147 6.98044H13.7821H13.7327H11.3646H11.3153H10.0496V7.14498H10.2635C10.5482 7.14498 10.7925 7.24623 10.995 7.44874C11.1975 7.65126 11.3051 7.89553 11.3153 8.18032V17.292C11.3039 17.5768 11.1975 17.8211 10.995 18.0236C10.7925 18.2261 10.5482 18.3274 10.2635 18.3274H10.0496V18.4919H11.3153H11.3646H13.7327H13.7821H15.344H18.5183H18.5677L19.3246 15.1201H19.16C18.9841 15.6682 18.7487 16.1428 18.4525 16.5428Z" fill="#040706"/>
<path d="M28.4844 13.1469H28.7476C29.3071 13.1469 29.5868 13.3937 29.5868 13.8873L29.5703 16.4035C29.4501 16.7541 29.2463 17.0503 28.9615 17.2921C28.6768 17.5338 28.3452 17.7173 27.9667 17.8426C27.5883 17.9692 27.1959 18.0312 26.7909 18.0312C25.991 18.0211 25.3113 17.8034 24.7519 17.3819C24.1924 16.9605 23.7671 16.3567 23.4773 15.5733C23.1862 14.7898 23.0419 13.8709 23.0419 12.8178C23.0419 11.699 23.1976 10.7408 23.5102 9.93965C23.8228 9.13973 24.2886 8.52208 24.9075 8.08921C25.5265 7.65634 26.2808 7.43991 27.1693 7.43991C27.7503 7.43991 28.3009 7.5361 28.8223 7.72722C29.3425 7.9196 29.8007 8.23729 30.1956 8.68155C30.5905 9.12581 30.8917 9.72069 31.1006 10.4662H31.2487L31.2157 7.65381C30.8981 7.47788 30.4981 7.32473 30.0146 7.1931C29.5324 7.06146 29.0058 6.95515 28.4363 6.87288C27.8655 6.79061 27.2794 6.74884 26.677 6.74884C25.3834 6.74884 24.262 6.99312 23.314 7.48041C22.366 7.96897 21.637 8.65624 21.1269 9.54476C20.6168 10.4333 20.3624 11.4914 20.3624 12.7191C20.3624 13.9468 20.6194 15.0113 21.1358 15.9099C21.6509 16.8086 22.3749 17.5022 23.3064 17.9907C24.238 18.478 25.329 18.7223 26.5795 18.7223C27.468 18.7223 28.273 18.616 28.997 18.4021C29.721 18.1882 30.3424 17.9173 30.8639 17.5882C31.3841 17.2592 31.7764 16.9301 32.0397 16.601V13.8873C32.0182 13.3937 32.2916 13.1469 32.8624 13.1469H33.1092V12.9824H28.4882V13.1469H28.4844Z" fill="#040706"/>
<path d="M42.0539 16.5428C41.7577 16.9427 41.402 17.2503 40.9844 17.4642C40.5679 17.6781 40.0857 17.7844 39.5377 17.7844H37.3835V13.1633H39.5541C39.9591 13.1747 40.2946 13.3114 40.5578 13.5747C40.8211 13.838 40.9527 14.1721 40.9527 14.5784V14.71H41.1172V13.1646V13.1317V12.5065V12.4735V10.9269H40.9527V11.042C40.9527 11.4483 40.8211 11.785 40.5578 12.0533C40.2946 12.3217 39.9604 12.4622 39.5541 12.4723H37.3835V7.6867H40.3072C40.716 7.73479 41.0502 7.88667 41.3058 8.14741C41.6071 8.45497 41.7577 8.85999 41.7577 9.365V9.56245H41.9222V7.68796V7.6386V7.16143V6.98044V6.68427C41.8235 6.72856 41.659 6.7716 41.4286 6.8159C41.1983 6.8602 40.9489 6.89817 40.6806 6.93108C40.411 6.96398 40.1566 6.98044 39.9161 6.98044H37.3835H37.3341H34.966H34.9166H33.6497V7.14498H33.8636C34.1483 7.14498 34.3926 7.24623 34.5951 7.44874C34.7976 7.65126 34.9052 7.89553 34.9154 8.18032V17.292C34.904 17.5768 34.7976 17.8211 34.5951 18.0236C34.3926 18.2261 34.1483 18.3274 33.8636 18.3274H33.6497V18.4919H34.9166H34.966H37.3341H37.3835H38.9453H42.1197H42.169L42.9259 15.1201H42.7614C42.5855 15.6682 42.35 16.1428 42.0539 16.5428Z" fill="#040706"/>
<path d="M55.6538 6.97917H53.4009H53.3679H52.0364V7.14371H52.3491C52.6338 7.14371 52.8731 7.2399 53.0642 7.43102C53.2553 7.62341 53.3578 7.86136 53.3679 8.14614V14.6467L45.0625 6.73236H44.8979C45.0296 7.48925 45.0954 8.17398 45.0954 8.78785V17.3237C45.0954 17.5983 44.9966 17.8338 44.7992 18.0312C44.6018 18.2287 44.3663 18.3274 44.0917 18.3274H43.7791V18.4919H45.0941H45.1435H47.3964H47.4458H48.7621V18.3274H48.4495C48.1748 18.3274 47.9394 18.2287 47.7419 18.0312C47.5445 17.8338 47.4458 17.5983 47.4458 17.3237H47.4432L47.4318 10.8066L55.7512 18.721H55.8993C55.8335 18.3704 55.7842 18.0337 55.7512 17.7097C55.7183 17.387 55.7019 17.0225 55.7019 16.6162V8.14614C55.7133 7.86136 55.8171 7.62214 56.0145 7.43102C56.212 7.2399 56.4474 7.14371 56.722 7.14371H57.0182V6.97917H55.7019H55.6538Z" fill="#040706"/>
<path d="M69.4448 9.66752C68.9348 8.80685 68.2083 8.14362 67.2653 7.67785C66.3224 7.21207 65.2035 6.97919 63.91 6.97919H61.6735H59.8155H59.256H59.2067H57.9397L57.9562 7.14373H58.1536C58.4384 7.14373 58.6852 7.24498 58.894 7.44749C59.1016 7.65127 59.2067 7.89428 59.2067 8.17906V17.2908C59.1953 17.5756 59.0889 17.8198 58.8852 18.0224C58.6827 18.2249 58.4384 18.3261 58.1536 18.3261H57.9397V18.4907H59.2067H59.256H59.9964H61.6735H63.91C65.2035 18.4907 66.3224 18.2578 67.2653 17.792C68.2083 17.3262 68.9348 16.663 69.4448 15.8023C69.9549 14.9417 70.2093 13.919 70.2093 12.7356C70.2093 11.5509 69.9549 10.5295 69.4448 9.66752ZM67.0679 15.4327C66.7603 16.1896 66.3224 16.7731 65.7516 17.1845C65.182 17.5958 64.5011 17.8009 63.7125 17.8009H62.8658H61.9861H61.6735V7.67025H61.9038H62.8253H63.7138C64.5036 7.67025 65.1833 7.8753 65.7528 8.28665C66.3224 8.698 66.7616 9.28148 67.0691 10.0384C67.3754 10.7952 67.5299 11.6939 67.5299 12.7356C67.5286 13.7772 67.3754 14.6759 67.0679 15.4327Z" fill="#040706"/>
<path d="M82.4611 18.3274C82.2092 18.3274 81.951 18.2476 81.6878 18.0894C81.4789 17.9629 81.2942 17.768 81.1334 17.5072L76.1618 6.65137H76.0137C76.0137 6.77161 75.9757 6.93868 75.8985 7.15258C75.8213 7.36649 75.7365 7.58798 75.6441 7.81834C75.5504 8.04869 75.4631 8.25374 75.3808 8.43473C75.2986 8.61573 75.2416 8.7385 75.2074 8.80431L71.3686 17.4908C71.2116 17.7591 71.0256 17.9591 70.8091 18.0882C70.5408 18.2476 70.2801 18.3261 70.0282 18.3261H69.8801V18.4907H73.4V18.3261H73.2519C73.1203 18.3261 72.9887 18.2856 72.857 18.2021C72.7254 18.1198 72.6317 18.0021 72.5773 17.849C72.5254 17.7034 72.5393 17.5275 72.6153 17.3237L73.4722 15.2669H77.3325L78.14 17.2895H78.1362C78.2679 17.6186 78.2514 17.873 78.0869 18.054C77.9223 18.235 77.73 18.3249 77.511 18.3249H77.3629V18.4894H82.5928V18.3249H82.4611V18.3274ZM73.7607 14.5771L75.4441 10.5383L77.0566 14.5771H73.7607Z" fill="#040706"/>
<path d="M98.0172 11.0115C97.8917 11.4501 96.5131 19.5021 102.278 22.572C107.824 25.4232 112.053 23.4804 114.559 21.225C113.526 21.5698 108.607 23.7624 103.751 20.0657C101.652 18.3422 100.275 14.3323 102.243 11.4501C104.393 8.30135 107.103 8.09758 108.544 8.78718C108.638 9.41405 107.98 9.27302 107.87 9.44514C107.761 9.61726 108.544 11.5911 109.578 12.0453C110.612 12.4995 112.492 13.4084 112.742 14.9431C113.885 15.4445 113.196 10.9487 113.008 10.886C112.82 10.8232 111.488 10.5101 111.536 9.36629C112.006 9.50732 112.241 9.99316 112.679 10.0087C112.727 9.42904 111.974 7.45517 113.024 6.46852C112.225 6.78167 112.053 7.28305 111.975 7.34579C111.959 7.07928 111.865 6.71893 112.053 6.12372C111.614 6.39023 111.505 6.89105 111.38 6.90716C111.254 6.9227 111.191 4.43191 110.095 3.8367C110.283 4.65123 110.173 5.71673 110.079 5.71673C109.985 5.71673 107.354 3.42971 106.1 3.5552C107.087 4.29144 107.103 5.40358 106.993 5.45077C106.727 5.27865 104.706 3.8528 103.28 4.5263C103.813 4.77672 104.205 5.32529 104.173 5.40358C103.891 5.30974 101.196 3.97829 101.745 2.47415C102.343 0.834543 103.734 0.171592 103.734 0.0933034C103.734 0.0150151 98.8312 -0.595744 94.6958 2.74067C92.8163 4.52575 89.104 9.50732 90.0907 18.2956C90.9368 14.0658 95.1428 7.08705 98.5264 6.28862C98.7379 6.24143 93.451 12.0925 94.6492 16.4866C95.0484 15.0058 96.0589 12.3035 98.0172 11.0115Z" fill="#85C5C8"/>
<path d="M102.873 11.1991C102.623 11.8882 100.876 17.7787 105.912 20.3161C110.429 22.592 115.499 19.345 116 15.7576C113.839 18.405 109.617 20.1279 106.789 18.4988C103.116 16.3828 102.637 12.4162 102.873 11.1991Z" fill="#85C5C8"/>
<path d="M108.873 15.4683C108.873 16.5688 107.981 17.4611 106.88 17.4611C105.78 17.4611 104.888 16.5688 104.888 15.4683C104.888 14.3678 105.78 13.4756 106.88 13.4756C107.981 13.475 108.873 14.3673 108.873 15.4683Z" fill="#85C5C8"/>
<path d="M107.674 12.3718C107.041 12.3718 106.452 12.5672 105.965 12.9003C105.961 12.9026 105.957 12.9059 105.953 12.9087C105.161 13.4567 104.641 14.3712 104.641 15.405C104.641 17.0779 106.002 18.4388 107.674 18.4388C109.347 18.4388 110.708 17.0779 110.708 15.405C110.708 13.7326 109.347 12.3718 107.674 12.3718ZM110.427 14.9286C109.104 14.4583 108.127 14.8936 107.707 15.269C107.451 15.1785 107.061 14.917 106.729 14.46C107.002 14.1585 108.009 13.2168 109.715 13.5C110.079 13.8898 110.332 14.3823 110.427 14.9286ZM109.413 13.2207C107.891 13.0986 106.927 13.9142 106.593 14.2568C106.399 13.9375 106.237 13.5411 106.156 13.0619C106.594 12.7776 107.115 12.6116 107.674 12.6116C108.331 12.6116 108.935 12.8404 109.413 13.2207ZM105.941 13.2168C106.219 14.6021 107.145 15.3245 107.635 15.4977C107.697 15.7909 107.683 16.2506 107.455 16.7526C107.083 16.6587 105.634 16.194 105.016 14.5494C105.187 14.0186 105.513 13.5566 105.941 13.2168ZM104.881 15.4056C104.881 15.2473 104.895 15.0924 104.92 14.942C105.601 16.3772 106.893 16.8475 107.342 16.9713C107.169 17.2734 106.914 17.5832 106.546 17.8758C106.524 17.893 106.512 17.9169 106.506 17.9419C105.547 17.4983 104.881 16.5283 104.881 15.4056ZM106.731 18.0346C107.16 17.6865 107.444 17.3128 107.625 16.9525C107.626 16.9519 107.626 16.9513 107.626 16.9513C107.925 16.3561 107.943 15.797 107.87 15.4467C108.094 15.2462 108.5 15.0286 109.05 14.9769C109.168 15.3251 109.532 16.7215 108.372 18.104L108.379 18.1096C108.154 18.1684 107.918 18.1995 107.674 18.1995C107.344 18.199 107.025 18.1407 106.731 18.0346ZM108.773 17.9735C109.677 16.6837 109.426 15.405 109.296 14.9647C109.64 14.9647 110.03 15.0302 110.459 15.1985C110.464 15.2668 110.468 15.3362 110.468 15.4061C110.468 16.556 109.769 17.546 108.773 17.9735Z" fill="#040706"/>
</svg>
