<svg width="39" height="40" viewBox="0 0 39 40" fill="none" xmlns="http://www.w3.org/2000/svg">
<path fill-rule="evenodd" clip-rule="evenodd" d="M2.10539 28.2874C2.10896 28.2839 2.11256 28.2804 2.11616 28.2769L25.8552 5.46956L30.1041 10.022L33.7841 13.9648L10.0992 36.7203C10.0892 36.7298 10.0791 36.7393 10.069 36.7487L2.10539 28.2874ZM1.57502 29.1829C1.55451 29.2566 1.53817 29.3317 1.52617 29.4079L0 39.0938L9.1127 37.2378C9.12477 37.2353 9.13682 37.2328 9.14883 37.2301L1.57502 29.1829ZM30.8352 9.33965L26.5764 4.77667L30.234 1.26257C31.0306 0.497311 32.2966 0.522656 33.0619 1.31918L38.3407 6.81363C39.106 7.61015 39.0806 8.87623 38.2841 9.64149L34.5053 13.272L30.8352 9.33965Z" fill="#17A49A"/>
</svg>
