<svg width="45" height="33" viewBox="0 0 45 33" fill="none" xmlns="http://www.w3.org/2000/svg">
<path d="M13.5 2C13.5 1.17157 12.8284 0.5 12 0.5C11.1716 0.5 10.5 1.17157 10.5 2H13.5ZM10.9393 32.0607C11.5251 32.6464 12.4749 32.6464 13.0607 32.0607L22.6066 22.5147C23.1924 21.9289 23.1924 20.9792 22.6066 20.3934C22.0208 19.8076 21.0711 19.8076 20.4853 20.3934L12 28.8787L3.51472 20.3934C2.92893 19.8076 1.97918 19.8076 1.3934 20.3934C0.807612 20.9792 0.807612 21.9289 1.3934 22.5147L10.9393 32.0607ZM10.5 2V31H13.5V2H10.5Z" fill="white"/>
<path d="M34.5 31C34.5 31.8284 33.8284 32.5 33 32.5C32.1716 32.5 31.5 31.8284 31.5 31H34.5ZM31.9393 0.93934C32.5251 0.353554 33.4749 0.353554 34.0607 0.93934L43.6066 10.4853C44.1924 11.0711 44.1924 12.0208 43.6066 12.6066C43.0208 13.1924 42.0711 13.1924 41.4853 12.6066L33 4.12132L24.5147 12.6066C23.9289 13.1924 22.9792 13.1924 22.3934 12.6066C21.8076 12.0208 21.8076 11.0711 22.3934 10.4853L31.9393 0.93934ZM31.5 31V2H34.5V31H31.5Z" fill="white"/>
</svg>
