<svg width="40" height="39" viewBox="0 0 40 39" fill="none" xmlns="http://www.w3.org/2000/svg">
<path d="M18.5293 0C19.334 0 20.1387 0 20.9435 0C21.04 0.0211258 21.1366 0.0462755 21.2342 0.0623714C22.4322 0.268599 23.6524 0.3863 24.8243 0.693127C31.9703 2.56628 37.5621 8.72696 38.7561 15.9862C38.8718 16.6904 38.9533 17.4006 39.0499 18.1078C39.0499 18.9126 39.0499 19.7174 39.0499 20.5222C39.0287 20.6198 38.9945 20.7153 38.9875 20.8139C38.731 24.1387 37.704 27.207 35.837 29.9674C32.7589 34.5185 28.5109 37.3212 23.1001 38.3302C22.3869 38.463 21.6627 38.5314 20.9435 38.63C20.1387 38.63 19.334 38.63 18.5293 38.63C18.4448 38.6099 18.3623 38.5767 18.2768 38.5706C14.9261 38.3161 11.8349 37.283 9.05559 35.3957C4.52194 32.3174 1.72752 28.0782 0.722613 22.68C0.590839 21.9668 0.521431 21.2425 0.422852 20.5222C0.422852 19.7174 0.422852 18.9126 0.422852 18.1078C0.50936 17.4499 0.574744 16.789 0.685395 16.1351C1.36237 12.1413 3.11467 8.6837 5.95235 5.79651C8.84636 2.85299 12.3339 1.00599 16.4088 0.295761C17.1119 0.17303 17.8221 0.097581 18.5293 0ZM19.4708 25.4395C19.5694 25.5069 19.6549 25.5602 19.7354 25.6195C21.1829 26.6849 22.6284 27.7532 24.0759 28.8176C25.1029 29.5731 25.8101 29.3005 26.0756 28.052C26.7989 24.6498 27.5231 21.2485 28.2464 17.8463C28.5703 16.3232 28.9012 14.8021 29.21 13.276C29.3126 12.768 29.3861 12.2278 28.9284 11.8355C28.4808 11.4522 28.007 11.6675 27.5442 11.8455C22.9432 13.6221 18.3412 15.3957 13.7401 17.1722C12.1598 17.7829 10.5775 18.3885 9.00428 19.0172C8.65825 19.155 8.25991 19.3552 8.30115 19.8039C8.34139 20.2284 8.75683 20.3361 9.10387 20.4457C10.5393 20.9004 11.9798 21.3391 13.4132 21.8028C13.7069 21.8974 13.9242 21.8551 14.1797 21.6932C17.6511 19.4961 21.1285 17.3091 24.606 15.121C24.776 15.0144 24.947 14.8937 25.1341 14.8383C25.2689 14.7991 25.4328 14.8595 25.5837 14.8756C25.5214 14.9882 25.4751 15.114 25.3926 15.2096C25.2779 15.3413 25.1371 15.451 25.0063 15.5687C22.2723 18.0384 19.5402 20.5091 16.8011 22.9728C16.5868 23.1649 16.4983 23.3641 16.4842 23.6498C16.439 24.5663 16.3595 25.4807 16.2961 26.3962C16.2559 26.9706 16.2207 27.545 16.1835 28.1275C16.5798 28.1617 16.8393 27.9756 17.0797 27.7442C17.8744 26.9776 18.6711 26.2111 19.4708 25.4395Z" fill="white"/>
</svg>
