<svg width="40" height="39" viewBox="0 0 40 39" fill="none" xmlns="http://www.w3.org/2000/svg">
<path d="M18.5288 0C19.3335 0 20.1382 0 20.943 0C21.0395 0.0211258 21.1361 0.0462755 21.2337 0.0623714C22.4317 0.268599 23.6519 0.3863 24.8238 0.693127C31.9698 2.56628 37.5616 8.72696 38.7556 15.9862C38.8713 16.6904 38.9528 17.4006 39.0494 18.1078C39.0494 18.9126 39.0494 19.7174 39.0494 20.5222C39.0283 20.6198 38.9941 20.7153 38.987 20.8139C38.7305 24.1387 37.7035 27.207 35.8365 29.9674C32.7584 34.5185 28.5104 37.3212 23.0996 38.3302C22.3864 38.463 21.6622 38.5314 20.943 38.63C20.1382 38.63 19.3335 38.63 18.5288 38.63C18.4443 38.6099 18.3618 38.5767 18.2763 38.5706C14.9256 38.3161 11.8344 37.283 9.0551 35.3957C4.52145 32.3174 1.72703 28.0782 0.722125 22.68C0.590351 21.9668 0.520943 21.2425 0.422363 20.5222C0.422363 19.7174 0.422363 18.9126 0.422363 18.1078C0.508872 17.4499 0.574256 16.789 0.684906 16.1351C1.36188 12.1413 3.11418 8.6837 5.95186 5.79651C8.84587 2.85299 12.3334 1.00599 16.4083 0.295761C17.1114 0.17303 17.8216 0.097581 18.5288 0ZM19.4703 25.4395C19.5689 25.5069 19.6544 25.5602 19.7349 25.6195C21.1824 26.6849 22.6279 27.7532 24.0754 28.8176C25.1024 29.5731 25.8096 29.3005 26.0751 28.052C26.7984 24.6498 27.5226 21.2485 28.2459 17.8463C28.5698 16.3232 28.9007 14.8021 29.2095 13.276C29.3122 12.768 29.3856 12.2278 28.9279 11.8355C28.4803 11.4522 28.0065 11.6675 27.5438 11.8455C22.9427 13.6221 18.3407 15.3957 13.7396 17.1722C12.1593 17.7829 10.577 18.3885 9.0038 19.0172C8.65776 19.155 8.25942 19.3552 8.30066 19.8039C8.3409 20.2284 8.75634 20.3361 9.10338 20.4457C10.5388 20.9004 11.9793 21.3391 13.4127 21.8028C13.7064 21.8974 13.9237 21.8551 14.1792 21.6932C17.6506 19.4961 21.1281 17.3091 24.6055 15.121C24.7755 15.0144 24.9465 14.8937 25.1336 14.8383C25.2684 14.7991 25.4324 14.8595 25.5832 14.8756C25.5209 14.9882 25.4746 15.114 25.3921 15.2096C25.2774 15.3413 25.1366 15.451 25.0058 15.5687C22.2718 18.0384 19.5397 20.5091 16.8006 22.9728C16.5864 23.1649 16.4978 23.3641 16.4838 23.6498C16.4385 24.5663 16.359 25.4807 16.2957 26.3962C16.2554 26.9706 16.2202 27.545 16.183 28.1275C16.5793 28.1617 16.8388 27.9756 17.0793 27.7442C17.8739 26.9776 18.6706 26.2111 19.4703 25.4395Z" fill="#073D3A"/>
</svg>
