<svg width="39" height="39" viewBox="0 0 39 39" fill="none" xmlns="http://www.w3.org/2000/svg">
<path d="M0 20.5413C0 19.7378 0 18.9334 0 18.1299C0.0453537 17.7836 0.0927231 17.4362 0.136061 17.0898C0.771013 11.955 3.08002 7.70919 7.06812 4.43296C13.3289 -0.709932 21.9482 -1.46908 28.9336 2.63376C35.1642 6.29359 38.3995 11.8624 38.6182 19.0884C38.7381 23.0362 37.6365 26.69 35.4253 29.9682C32.3543 34.5211 28.0981 37.3221 22.6829 38.331C21.9693 38.4639 21.2447 38.5323 20.5251 38.63C19.7198 38.63 18.9155 38.63 18.1102 38.63C18.0135 38.6089 17.9177 38.5756 17.82 38.5676C13.972 38.2615 10.5079 36.9446 7.47429 34.5624C3.57085 31.4976 1.16105 27.5156 0.288248 22.6234C0.166297 21.9337 0.0947388 21.235 0 20.5413ZM15.1068 13.1954C15.2076 13.2276 15.2872 13.2599 15.3709 13.28C16.024 13.4391 16.4281 13.8338 16.5309 14.5073C16.5743 14.7923 16.6206 15.0782 16.6347 15.3661C16.6902 16.4576 16.7617 17.553 16.4563 18.6212C16.2679 19.2807 15.8365 19.4116 15.3427 18.9374C14.9748 18.584 14.6513 18.1742 14.361 17.7523C13.469 16.4555 12.7444 15.0661 12.1548 13.6072C11.9724 13.1572 11.665 12.8601 11.1741 12.8551C9.96773 12.842 8.75931 12.84 7.5529 12.8732C6.88671 12.8914 6.68312 13.2528 6.95927 13.8629C8.24833 16.7163 9.6936 19.4821 11.5672 22.0042C12.7454 23.5899 14.1292 24.925 15.9806 25.7204C17.3453 26.3064 18.7704 26.4081 20.2277 26.3678C21.1368 26.3426 21.3626 26.103 21.4483 25.216C21.5027 24.6532 21.6388 24.0773 21.8575 23.5557C22.0691 23.0503 22.5418 22.9627 22.9832 23.2919C23.342 23.5597 23.6545 23.894 23.9699 24.2162C24.4446 24.7005 24.88 25.225 25.3749 25.6852C25.8718 26.1483 26.4694 26.4413 27.1759 26.4332C28.2322 26.4212 29.2884 26.4161 30.3436 26.3889C30.6289 26.3819 30.9242 26.3426 31.1943 26.255C31.7526 26.0748 31.9441 25.6479 31.672 25.1304C31.4452 24.7005 31.1872 24.2696 30.8617 23.9131C30.1088 23.0885 29.3045 22.3103 28.5244 21.5108C28.3148 21.2954 28.1052 21.0769 27.9147 20.8453C27.6587 20.5332 27.6275 20.1818 27.8159 19.8254C27.9389 19.5928 28.0689 19.3613 28.2251 19.1508C28.7028 18.5044 29.2249 17.8883 29.6734 17.2238C30.3386 16.2381 31.0159 15.2514 31.5773 14.2063C32.0711 13.285 31.7274 12.8501 30.6772 12.8692C29.4325 12.8924 28.1878 12.9085 26.9441 12.9206C26.1298 12.9286 26.0451 12.9769 25.7438 13.726C25.1985 15.0812 24.5384 16.377 23.6948 17.5711C23.3561 18.0504 22.9802 18.5135 22.5599 18.9213C22.1094 19.3592 21.7285 19.2273 21.5188 18.6263C21.4735 18.4974 21.4392 18.3595 21.4321 18.2235C21.411 17.8228 21.3928 17.4211 21.3948 17.0204C21.4029 15.8283 21.4422 14.6352 21.4281 13.4431C21.4211 12.8662 21.155 12.5329 20.644 12.4282C19.112 12.1161 17.571 12.1463 16.0401 12.4353C15.6299 12.5108 15.2771 12.7464 15.1068 13.1954Z" fill="#073D3A"/>
</svg>
