<svg width="40" height="39" viewBox="0 0 40 39" fill="none" xmlns="http://www.w3.org/2000/svg">
<path d="M0.844727 20.5257C0.844727 19.7206 0.844727 18.9164 0.844727 18.1113C0.866857 18.0024 0.892004 17.8936 0.912123 17.7838C1.13242 16.5504 1.25212 15.2887 1.58608 14.0865C4.95589 1.95487 18.8998 -3.72249 29.8381 2.62801C34.9934 5.62188 38.0916 10.1515 39.181 16.0274C39.3088 16.7166 39.3762 17.417 39.4717 18.1113C39.4717 18.8912 39.4717 19.6702 39.4717 20.4501C39.4506 20.5711 39.4245 20.691 39.4074 20.8129C39.3027 21.5707 39.2364 22.3365 39.0905 23.0863C37.5867 30.8617 31.2957 37.0046 23.4828 38.3337C22.7806 38.4537 22.0705 38.5323 21.3643 38.63C20.5596 38.63 19.7549 38.63 18.9501 38.63C18.8666 38.6088 18.7852 38.5736 18.7007 38.5685C17.064 38.4526 15.4606 38.1513 13.9226 37.581C6.90937 34.9831 2.65235 30.0071 1.15052 22.6822C1.00467 21.9718 0.944312 21.2452 0.844727 20.5257ZM20.1552 9.63251C19.6804 9.67585 19.2006 9.69096 18.7308 9.76654C12.3393 10.7954 8.79646 17.4684 11.5074 23.3493C11.5738 23.4944 11.5969 23.6879 11.5667 23.8441C11.273 25.3344 10.9602 26.8208 10.6594 28.3092C10.5447 28.8745 10.7188 29.0418 11.27 28.9128C12.7115 28.5742 14.1509 28.2265 15.5954 27.9C15.7755 27.8597 16.0018 27.8718 16.1678 27.9464C17.7269 28.6427 19.3485 28.9218 21.0525 28.7687C26.3456 28.291 30.2646 23.4994 29.6792 18.203C29.139 13.3207 25.047 9.64964 20.1552 9.63251Z" fill="white"/>
<path d="M13.1846 26.3229C13.3637 25.4402 13.5025 24.624 13.7027 23.8249C13.8033 23.4238 13.7178 23.1104 13.5407 22.7597C11.5681 18.8559 13.1193 14.2658 17.0111 12.458C22.0055 10.1383 27.709 13.8235 27.6456 19.3285C27.5823 24.8074 21.8868 28.3635 16.9407 25.9884C16.3704 25.7143 15.8654 25.6317 15.2639 25.8191C14.609 26.0237 13.928 26.1476 13.1846 26.3229ZM15.2437 17.0269C15.3866 17.556 15.4852 18.1011 15.6803 18.609C16.0515 19.5734 16.6973 20.3644 17.4195 21.091C18.5723 22.2508 19.8287 23.2636 21.4341 23.7311C23.1029 24.2169 24.2326 23.8289 25.1067 22.4997C25.4729 21.9425 25.3109 21.4729 24.6792 21.2794C24.3432 21.1766 23.9912 21.1152 23.6703 20.9791C22.937 20.6677 22.3274 20.7171 21.8244 21.4145C21.6102 21.7107 21.2772 21.7309 20.9442 21.5434C19.7663 20.8814 18.7745 20.0087 17.9698 18.9244C17.7143 18.5798 17.7273 18.3158 17.9879 17.9661C18.0925 17.825 18.2434 17.7021 18.2997 17.5449C18.3762 17.3333 18.4697 17.0642 18.4013 16.8758C18.1699 16.2409 17.8863 15.6232 17.5915 15.0136C17.4125 14.6437 16.9789 14.5057 16.6661 14.7364C15.9056 15.2987 15.3101 15.9759 15.2437 17.0269Z" fill="white"/>
</svg>
