<svg width="39" height="39" viewBox="0 0 39 39" fill="none" xmlns="http://www.w3.org/2000/svg">
<path d="M0 20.5257C0 19.7206 0 18.9164 0 18.1113C0.0221301 18.0024 0.0472779 17.8936 0.0673961 17.7838C0.287691 16.5504 0.407394 15.2887 0.741357 14.0865C4.11116 1.95487 18.0551 -3.72249 28.9934 2.62801C34.1487 5.62188 37.2469 10.1515 38.3363 16.0274C38.4641 16.7166 38.5315 17.417 38.627 18.1113C38.627 18.8912 38.627 19.6702 38.627 20.4501C38.6059 20.5711 38.5797 20.691 38.5626 20.8129C38.458 21.5707 38.3916 22.3365 38.2458 23.0863C36.7419 30.8617 30.451 37.0046 22.638 38.3337C21.9359 38.4537 21.2257 38.5323 20.5196 38.63C19.7149 38.63 18.9101 38.63 18.1054 38.63C18.0219 38.6088 17.9404 38.5736 17.8559 38.5685C16.2193 38.4526 14.6159 38.1513 13.0779 37.581C6.06464 34.9831 1.80762 30.0071 0.305797 22.6822C0.15994 21.9718 0.0995853 21.2452 0 20.5257ZM19.3105 9.63251C18.8357 9.67584 18.3559 9.69096 17.8861 9.76654C11.4946 10.7954 7.95173 17.4684 10.6627 23.3493C10.7291 23.4944 10.7522 23.6879 10.722 23.8441C10.4283 25.3344 10.1154 26.8208 9.81468 28.3092C9.70001 28.8745 9.87403 29.0418 10.4253 28.9128C11.8667 28.5742 13.3062 28.2265 14.7507 27.9C14.9307 27.8597 15.1571 27.8718 15.3231 27.9464C16.8822 28.6427 18.5037 28.9218 20.2078 28.7687C25.5009 28.291 29.4199 23.4994 28.8345 18.203C28.2943 13.3207 24.2022 9.64964 19.3105 9.63251Z" fill="#073D3A"/>
<path d="M12.3395 26.3229C12.5186 25.4402 12.6574 24.624 12.8576 23.8249C12.9582 23.4238 12.8727 23.1104 12.6956 22.7597C10.723 18.8559 12.2742 14.2658 16.166 12.458C21.1604 10.1383 26.8639 13.8235 26.8005 19.3285C26.7372 24.8074 21.0417 28.3635 16.0956 25.9884C15.5253 25.7143 15.0203 25.6317 14.4188 25.8191C13.7639 26.0237 13.0829 26.1476 12.3395 26.3229ZM14.3987 17.0269C14.5415 17.556 14.6401 18.1011 14.8352 18.609C15.2064 19.5734 15.8522 20.3644 16.5744 21.091C17.7272 22.2508 18.9836 23.2636 20.589 23.7311C22.2578 24.2169 23.3875 23.8289 24.2616 22.4997C24.6278 21.9425 24.4658 21.4729 23.8341 21.2794C23.4981 21.1766 23.1461 21.1152 22.8252 20.9791C22.0919 20.6677 21.4823 20.7171 20.9793 21.4145C20.7651 21.7107 20.4321 21.7309 20.0992 21.5434C18.9212 20.8814 17.9294 20.0087 17.1247 18.9244C16.8692 18.5798 16.8822 18.3158 17.1428 17.9661C17.2474 17.825 17.3983 17.7021 17.4546 17.5449C17.5311 17.3333 17.6246 17.0642 17.5562 16.8758C17.3248 16.2409 17.0412 15.6232 16.7464 15.0136C16.5674 14.6437 16.1338 14.5057 15.821 14.7364C15.0605 15.2987 14.465 15.9759 14.3987 17.0269Z" fill="#073D3A"/>
</svg>
